<svg width="111" height="31" fill="none" xmlns="http://www.w3.org/2000/svg"><path d="M10.96 30.19c-1.34 0-2.63-.18-3.87-.54-1.22-.36-2.31-.89-3.27-1.59-.94-.68-1.69-1.53-2.25-2.55-.54-1-.81-2.16-.81-3.48 0-.82.12-1.68.36-2.58.18-.66.5-1.28.96-1.86.46-.58.95-1.05 1.47-1.41.52-.38.94-.58 1.26-.6.24 0 .36.05.36.15 0 .12-.1.22-.3.3-.34.12-.73.4-1.17.84-.44.44-.84.99-1.2 1.65-.34.66-.57 1.4-.69 2.22-.06.38-.09.75-.09 1.11 0 1.16.25 2.15.75 2.97.5.82 1.16 1.48 1.98 1.98.82.52 1.71.89 2.67 1.11.98.24 1.95.36 2.91.36.9 0 1.72-.09 2.46-.27 2.12-.48 3.97-1.19 5.55-2.13 1.58-.92 2.93-1.99 4.05-3.21 1.14-1.22 2.1-2.5 2.88-3.84.78-1.36 1.42-2.7 1.92-4.02-.36 0-.68.04-.96.12-.26.08-.54.2-.84.36-.06.02-.17.06-.33.12-.16.04-.28.06-.36.06-.18 0-.27-.06-.27-.18 0-.08.04-.19.12-.33.14-.22.39-.45.75-.69.36-.26.74-.42 1.14-.48h1.14c.38-.94.79-1.91 1.23-2.91.46-1.02.9-1.99 1.32-2.91.42-.92.8-1.73 1.14-2.43.34-.7.59-1.21.75-1.53-1.1.12-2.24.23-3.42.33-1.18.08-2.34.22-3.48.42-1.14.18-2.22.48-3.24.9-1.04.42-1.97 1.02-2.79 1.8-.8.76-1.43 1.62-1.89 2.58-.46.94-.69 1.92-.69 2.94 0 .98.27 1.79.81 2.43.54.64 1.25.96 2.13.96.2 0 .41-.02.63-.06.22-.04.45-.1.69-.18.46-.18.86-.47 1.2-.87.36-.4.65-.85.87-1.35.22-.5.38-.99.48-1.47.12-.48.18-.87.18-1.17 0-.24-.03-.4-.09-.48-.08-.1-.12-.2-.12-.3 0-.14.06-.21.18-.21.14 0 .25.08.33.24.12.26.2.52.24.78.06.26.09.52.09.78 0 .68-.16 1.34-.48 1.98-.32.62-.73 1.16-1.23 1.62-.5.46-1.04.8-1.62 1.02-.26.1-.53.18-.81.24-.28.04-.55.06-.81.06-.84 0-1.61-.21-2.31-.63-.68-.44-1.23-1.03-1.65-1.77-.42-.74-.63-1.56-.63-2.46 0-1.28.29-2.41.87-3.39.58-1 1.37-1.85 2.37-2.55 1.02-.7 2.16-1.23 3.42-1.59 1.22-.36 2.48-.61 3.78-.75 1.32-.14 2.61-.24 3.87-.3 1.28-.08 2.45-.17 3.51-.27.08-.12.24-.35.48-.69.26-.34.55-.68.87-1.02.34-.36.67-.59.99-.69.22-.06.43-.09.63-.09.3 0 .56.08.78.24.22.14.33.37.33.69 0 .48-.22.89-.66 1.23-.42.32-.92.57-1.5.75-.56.18-1.04.27-1.44.27-.22.44-.48 1.02-.78 1.74-.3.7-.61 1.47-.93 2.31-.3.82-.6 1.62-.9 2.4-.3.78-.57 1.47-.81 2.07-.22.6-.38 1.03-.48 1.29 1.36 0 2.69.04 3.99.12 1.3.08 2.49.17 3.57.27 1.1.08 2 .12 2.7.12.08-.24.24-.67.48-1.29s.54-1.35.9-2.19c.36-.86.75-1.74 1.17-2.64.44-.92.89-1.79 1.35-2.61.48-.82.94-1.51 1.38-2.07.46-.56.88-.91 1.26-1.05.42-.16.76-.26 1.02-.3.28-.06.49-.09.63-.09.12 0 .18.02.18.06 0 .06-.14.16-.42.3-.14.06-.43.39-.87.99-.42.58-.93 1.39-1.53 2.43-.6 1.02-1.24 2.25-1.92 3.69-.66 1.42-1.29 3-1.89 4.74.32 0 .74-.01 1.26-.03.52-.02.9-.08 1.14-.18.08-.04.15-.06.21-.06h.15c.12 0 .18.03.18.09 0 .08-.1.19-.3.33-.38.28-.85.48-1.41.6-.56.12-1.07.19-1.53.21-.1.36-.26.87-.48 1.53-.2.64-.42 1.35-.66 2.13-.22.78-.41 1.56-.57 2.34-.16.76-.24 1.44-.24 2.04 0 .72.13 1.22.39 1.5.22.24.47.36.75.36.32 0 .63-.12.93-.36.52-.38 1-.87 1.44-1.47.46-.62.88-1.27 1.26-1.95.4-.7.76-1.37 1.08-2.01.14-.28.28-.42.42-.42.1 0 .15.07.15.21 0 .12-.04.26-.12.42-.42.88-.8 1.64-1.14 2.28-.34.64-.7 1.23-1.08 1.77-.38.52-.86 1.06-1.44 1.62-.3.28-.66.52-1.08.72-.4.22-.82.33-1.26.33-.38 0-.74-.09-1.08-.27-.4-.22-.69-.55-.87-.99-.18-.46-.27-.99-.27-1.59 0-.68.08-1.42.24-2.22.18-.8.39-1.58.63-2.34.26-.78.51-1.49.75-2.13.24-.64.42-1.14.54-1.5-.34 0-.93-.01-1.77-.03-.84-.04-1.79-.07-2.85-.09-1.04-.04-2.07-.08-3.09-.12-1-.06-1.84-.1-2.52-.12-.62 1.82-1.43 3.59-2.43 5.31-.98 1.7-2.14 3.25-3.48 4.65-1.34 1.4-2.83 2.56-4.47 3.48-1.62.94-3.38 1.53-5.28 1.77-.2.02-.49.04-.87.06-.38.04-.7.06-.96.06Zm22.2-26.97c.76-.12 1.26-.28 1.5-.48.26-.22.39-.41.39-.57 0-.12-.04-.22-.12-.3-.06-.08-.13-.12-.21-.12-.08-.06-.22 0-.42.18-.2.18-.41.4-.63.66-.2.24-.37.45-.51.63Zm17.6309 21.87c-.22.02-.47-.03-.75-.15s-.53-.34-.75-.66c-.2-.32-.3-.77-.3-1.35 0-.48.09-1.06.27-1.74-.24.38-.55.85-.93 1.41-.38.54-.79 1.02-1.23 1.44-.38.36-.74.62-1.08.78-.34.16-.65.24-.93.24-.52 0-.94-.23-1.26-.69-.32-.48-.48-1.1-.48-1.86 0-.8.2-1.71.6-2.73.4-1.02 1.05-2.08 1.95-3.18.58-.7 1.28-1.26 2.1-1.68.84-.44 1.66-.66 2.46-.66.46 0 .9.08 1.32.24.42.14.79.38 1.11.72.14.14.21.3.21.48 0 .12-.05.22-.15.3-.1.08-.23.1-.39.06-.22-.7-.69-1.05-1.41-1.05-.34 0-.73.11-1.17.33-.68.36-1.39.95-2.13 1.77-.72.82-1.35 1.67-1.89 2.55-.08.12-.21.35-.39.69-.16.34-.32.72-.48 1.14-.16.42-.27.83-.33 1.23-.02.12-.03.21-.03.27v.21c0 .66.25.99.75.99.6 0 1.28-.44 2.04-1.32.52-.64.99-1.31 1.41-2.01.42-.7.85-1.45 1.29-2.25.3-.54.58-.99.84-1.35.26-.36.63-.54 1.11-.54.22 0 .44.03.66.09.22.06.45.07.69.03-.16.16-.38.46-.66.9-.26.44-.54.94-.84 1.5-.3.56-.57 1.13-.81 1.71-.24.58-.41 1.08-.51 1.5-.02.12-.05.29-.09.51-.02.22-.03.38-.03.48 0 .56.16.84.48.84.32 0 .66-.19 1.02-.57.38-.38.75-.85 1.11-1.41.36-.56.69-1.12.99-1.68.3-.58.54-1.05.72-1.41.08-.2.2-.3.36-.3.1 0 .15.07.15.21 0 .06-.03.17-.09.33-.24.5-.53 1.07-.87 1.71-.34.62-.71 1.23-1.11 1.83-.4.58-.82 1.07-1.26 1.47-.42.38-.85.59-1.29.63Zm3.5268.27c-.36 0-.54-.15-.54-.45 0-.2.05-.37.15-.51.06-.12.27-.25.63-.39.36-.16.73-.31 1.11-.45.4-.16.67-.28.81-.36.36-.18.75-.52 1.17-1.02.44-.52.89-1.1 1.35-1.74.46-.66.91-1.3 1.35-1.92.44-.62.86-1.14 1.26-1.56-.36-.08-.77-.17-1.23-.27-.46-.1-.89-.15-1.29-.15-.48 0-.9.06-1.26.18-.34.1-.68.32-1.02.66-.34.32-.7.8-1.08 1.44-.38.64-.84 1.49-1.38 2.55-.1.16-.22.24-.36.24-.1 0-.15-.06-.15-.18 0-.08.03-.18.09-.3.1-.18.27-.5.51-.96l.72-1.44c.24-.5.42-.86.54-1.08.5-.9.98-1.56 1.44-1.98.48-.42.94-.69 1.38-.81.46-.12.89-.18 1.29-.18.34 0 .66.07.96.21.32.14.63.29.93.45.3.14.6.21.9.21.38 0 .66-.1.84-.3.18-.2.34-.3.48-.3.14 0 .26.06.36.18.1.12.15.27.15.45 0 .26-.09.43-.27.51-.16.08-.32.17-.48.27-.54.3-1.06.75-1.56 1.35-.48.58-.96 1.22-1.44 1.92-.46.7-.92 1.38-1.38 2.04-.46.64-.92 1.17-1.38 1.59.4.12.89.25 1.47.39s1.11.21 1.59.21h.3l.3-.06c.46-.12.89-.39 1.29-.81.4-.44.77-.94 1.11-1.5.34-.56.64-1.12.9-1.68l.69-1.38c.06-.12.15-.18.27-.18.12 0 .18.06.18.18 0 .1-.02.19-.06.27-.46 1.1-.97 2.16-1.53 3.18-.56 1-1.17 1.81-1.83 2.43-.64.62-1.34.92-2.1.9-.86-.04-1.62-.13-2.28-.27-.66-.14-1.22-.21-1.68-.21-.38 0-.75.1-1.11.3-.34.22-.71.33-1.11.33Zm14.3932-.33c-.38 0-.76-.15-1.14-.45-.38-.32-.57-.83-.57-1.53 0-.54.13-1.16.39-1.86.24-.68.56-1.34.96-1.98.42-.64.72-1.16.9-1.56.06-.16.09-.3.09-.42 0-.36-.23-.62-.69-.78-.44-.16-1.02-.25-1.74-.27l-.36.99c-.22.64-.53 1.39-.93 2.25-.38.86-.81 1.69-1.29 2.49-.46.8-.94 1.44-1.44 1.92-.04.04-.09.06-.15.06-.08 0-.13-.05-.15-.15-.04-.1 0-.22.12-.36.78-1.04 1.48-2.19 2.1-3.45.62-1.28 1.14-2.58 1.56-3.9.44-1.32.76-2.54.96-3.66.06-.32.17-.55.33-.69.16-.16.33-.24.51-.24.26 0 .5.13.72.39.22.24.33.59.33 1.05 0 .08-.01.17-.03.27 0 .1-.01.2-.03.3-.08.42-.32.82-.72 1.2-.38.36-.69.63-.93.81.2.02.41.04.63.06h.72c.94 0 1.87-.06 2.79-.18.04.12.06.21.06.27 0 .26-.08.59-.24.99-.14.4-.29.76-.45 1.08-.08.18-.24.51-.48.99-.24.46-.5.99-.78 1.59-.28.58-.52 1.16-.72 1.74-.18.56-.27 1.04-.27 1.44 0 .52.2.78.6.78.3 0 .63-.19.99-.57.36-.4.71-.88 1.05-1.44.36-.58.68-1.14.96-1.68.3-.56.53-1 .69-1.32.08-.2.19-.3.33-.3.08 0 .12.07.12.21 0 .08-.03.2-.09.36-.22.46-.48.98-.78 1.56-.3.58-.64 1.15-1.02 1.71-.36.56-.76 1.05-1.2 1.47-.42.4-.88.66-1.38.78-.06.02-.17.03-.33.03Zm10.7323.06c-.22.02-.47-.03-.75-.15s-.53-.34-.75-.66c-.2-.32-.3-.77-.3-1.35 0-.48.09-1.06.27-1.74-.24.38-.55.85-.93 1.41-.38.54-.79 1.02-1.23 1.44-.38.36-.74.62-1.08.78-.34.16-.65.24-.93.24-.52 0-.94-.23-1.26-.69-.32-.48-.48-1.1-.48-1.86 0-.8.2-1.71.6-2.73.4-1.02 1.05-2.08 1.95-3.18.58-.7 1.28-1.26 2.1-1.68.84-.44 1.66-.66 2.46-.66.46 0 .9.08 1.32.24.42.14.79.38 1.11.72.14.14.21.3.21.48 0 .12-.05.22-.15.3-.1.08-.23.1-.39.06-.22-.7-.69-1.05-1.41-1.05-.34 0-.73.11-1.17.33-.68.36-1.39.95-2.13 1.77-.72.82-1.35 1.67-1.89 2.55-.08.12-.21.35-.39.69-.16.34-.32.72-.48 1.14-.16.42-.27.83-.33 1.23-.02.12-.03.21-.03.27v.21c0 .66.25.99.75.99.6 0 1.28-.44 2.04-1.32.52-.64.99-1.31 1.41-2.01.42-.7.85-1.45 1.29-2.25.3-.54.58-.99.84-1.35.26-.36.63-.54 1.11-.54.22 0 .44.03.66.09.22.06.45.07.69.03-.16.16-.38.46-.66.9-.26.44-.54.94-.84 1.5-.3.56-.57 1.13-.81 1.71-.24.58-.41 1.08-.51 1.5-.02.12-.05.29-.09.51-.02.22-.03.38-.03.48 0 .56.16.84.48.84.32 0 .66-.19 1.02-.57.38-.38.75-.85 1.11-1.41.36-.56.69-1.12.99-1.68.3-.58.54-1.05.72-1.41.08-.2.2-.3.36-.3.1 0 .15.07.15.21 0 .06-.03.17-.09.33-.24.5-.53 1.07-.87 1.71-.34.62-.71 1.23-1.11 1.83-.4.58-.82 1.07-1.26 1.47-.42.38-.85.59-1.29.63Zm5.5369-.09c-.56 0-1.06-.19-1.5-.57-.44-.4-.66-1.02-.66-1.86 0-.66.12-1.47.36-2.43.26-.98.57-1.99.93-3.03.38-1.06.75-2.02 1.11-2.88h-1.59c-.14 0-.21-.1-.21-.3 0-.1.02-.19.06-.27.06-.08.14-.12.24-.12h1.8c.34-.76.7-1.5 1.08-2.22.38-.72.75-1.4 1.11-2.04.46-.8.95-1.4 1.47-1.8.52-.4.97-.6 1.35-.6.3 0 .55.12.75.36.2.22.3.56.3 1.02 0 .28-.06.67-.18 1.17-.12.48-.31.99-.57 1.53l-.6 1.2c-.24.52-.48.98-.72 1.38h1.44c.14 0 .21.1.21.3 0 .08-.02.17-.06.27-.04.08-.1.12-.18.12h-1.77c-.5.86-1.07 1.7-1.71 2.52-.64.82-1.4 1.64-2.28 2.46-.06.18-.14.44-.24.78-.08.34-.16.69-.24 1.05-.06.34-.12.63-.18.87l-.06.36c-.06.26-.09.5-.09.72 0 .42.1.73.3.93.2.18.43.27.69.27.16 0 .32-.02.48-.06.16-.06.34-.16.54-.3.7-.5 1.31-1.18 1.83-2.04.54-.86 1.01-1.69 1.41-2.49.12-.24.24-.36.36-.36.08 0 .12.06.12.18 0 .06-.03.17-.09.33-.44.92-.81 1.66-1.11 2.22-.3.56-.59 1.03-.87 1.41-.28.36-.61.72-.99 1.08-.28.28-.6.49-.96.63s-.72.21-1.08.21Zm2.37-11.46h1.53c.28-.52.54-1.03.78-1.53.26-.5.49-1 .69-1.5.14-.32.26-.68.36-1.08.1-.4.15-.71.15-.93 0-.3-.07-.45-.21-.45-.1 0-.25.09-.45.27-.18.16-.41.44-.69.84-.36.5-.72 1.15-1.08 1.95-.34.78-.7 1.59-1.08 2.43Zm-1.95 4.71c.58-.6 1.12-1.24 1.62-1.92.52-.68 1-1.38 1.44-2.1h-1.41c-.32.74-.62 1.46-.9 2.16-.28.7-.53 1.32-.75 1.86Zm7.5051-5.43c-.3 0-.55-.1-.75-.3-.18-.22-.27-.48-.27-.78 0-.38.15-.71.45-.99.3-.28.63-.42.99-.42.32 0 .58.1.78.3.2.2.3.44.3.72 0 .38-.15.72-.45 1.02-.3.3-.65.45-1.05.45ZM90.4752 25c-.74 0-1.26-.21-1.56-.63-.3-.44-.45-.94-.45-1.5 0-.3.03-.6.09-.9.08-.32.17-.61.27-.87l2.01-5.13c.06-.16.09-.3.09-.42 0-.2-.05-.37-.15-.51-.1-.16-.17-.27-.21-.33l1.65-.06c.3-.02.51.02.63.12.14.08.21.18.21.3s-.07.34-.21.66l-2.49 5.85-.18.39c-.1.24-.16.4-.18.48-.06.3-.1.49-.12.57-.02.08-.03.13-.03.15v.24c0 .26.06.48.18.66.14.18.37.27.69.27.2 0 .43-.06.69-.18.26-.12.45-.24.57-.36.5-.52.99-1.2 1.47-2.04.5-.86.96-1.71 1.38-2.55.08-.2.18-.3.3-.3.1 0 .15.07.15.21 0 .08-.03.2-.09.36-.2.42-.45.94-.75 1.56-.3.62-.66 1.24-1.08 1.86-.4.6-.84 1.1-1.32 1.5-.48.4-1 .6-1.56.6Zm1.5235.15c.74-1.42 1.44-2.84 2.1-4.26.66-1.44 1.33-2.8 2.01-4.08.4-.72.73-1.22.99-1.5.28-.3.65-.45 1.11-.45.16 0 .33.03.51.09.18.04.36.06.54.06.12 0 .21-.01.27-.03-.28.16-.64.56-1.08 1.2-.44.62-.89 1.34-1.35 2.16-.46.82-.87 1.59-1.23 2.31.38-.46.77-.92 1.17-1.38.42-.46.88-.9 1.38-1.32.44-.38.9-.79 1.38-1.23.5003-.46.9903-.85 1.4703-1.17.48-.32.9-.48 1.26-.48.14 0 .23.01.27.03.38.16.57.42.57.78 0 .12-.05.3-.15.54-.26.68-.6 1.38-1.02 2.1-.4.7-.78 1.41-1.14 2.13.3-.36.67-.8 1.11-1.32.46-.52.92-.98 1.38-1.38.44-.4 1-.82 1.68-1.26.68-.44 1.35-.82 2.01-1.14.66-.32 1.19-.48 1.59-.48.14 0 .24.01.3.03l-.33.6c-.22.38-.5.89-.84 1.53-.32.62-.65 1.29-.99 2.01-.34.7-.65 1.38-.93 2.04-.26.64-.43 1.18-.51 1.62-.06.26-.09.5-.09.72 0 .32.06.53.18.63.12.1.25.15.39.15.4 0 .81-.21 1.23-.63.42-.42.82-.92 1.2-1.5.4-.6.75-1.18 1.05-1.74.3-.58.52-1.02.66-1.32.12-.22.24-.33.36-.33s.18.08.18.24c0 .1-.03.21-.09.33-.24.46-.53 1.01-.87 1.65-.32.64-.69 1.27-1.11 1.89-.42.6-.89 1.11-1.41 1.53-.5.4-1.04.6-1.62.6-.42 0-.85-.14-1.29-.42-.42-.28-.63-.8-.63-1.56 0-.42.09-.93.27-1.53.14-.4.35-.86.63-1.38.3-.52.66-1.12 1.08-1.8.2-.34.3-.61.3-.81 0-.24-.12-.36-.36-.36-.2 0-.48.1-.84.3-.34.2-.77.55-1.29 1.05-.32.3-.7.72-1.14 1.26-.42.52-.85 1.09-1.29 1.71-.44.62-.82 1.23-1.1403 1.83-.32.6-.53 1.13-.63 1.59-.3 0-.54-.12-.72-.36-.18-.26-.27-.56-.27-.9v-.18c0-.06.01-.13.03-.21.1-.62.26-1.2.48-1.74.22-.54.47-1.1.75-1.68.22-.42.44-.87.6603-1.35.22-.5.33-.88.33-1.14 0-.16-.06-.24-.18-.24-.14 0-.3703.11-.6903.33-.32.2-.76.56-1.32 1.08-.5.48-1.11 1.17-1.83 2.07-.7.9-1.47 2.18-2.31 3.84-.12.22-.26.36-.42.42-.16.04-.41.06-.75.06h-.54c-.16.02-.32.07-.48.15Z" fill="#4B9E50"/></svg>